<svg width="32" height="32" viewBox="0 0 32 32" fill="none" xmlns="http://www.w3.org/2000/svg">
  <rect width="32" height="32" rx="6" fill="#000000"/>
  <rect width="32" height="32" rx="6" fill="url(#paint0_linear)"/>
  <path d="M9 10C9 9.44772 9.44772 9 10 9H14C16.7614 9 19 11.2386 19 14C19 16.7614 16.7614 19 14 19H11V22C11 22.5523 10.5523 23 10 23C9.44772 23 9 22.5523 9 22V10ZM11 11V17H14C15.6569 17 17 15.6569 17 14C17 12.3431 15.6569 11 14 11H11Z" fill="#96D95D"/>
  <circle cx="21.5" cy="21.5" r="2" fill="#96D95D"/>
  <defs>
    <linearGradient id="paint0_linear" x1="0" y1="0" x2="32" y2="32" gradientUnits="userSpaceOnUse">
      <stop stop-color="#1a1a1a"/>
      <stop offset="1" stop-color="#000000"/>
    </linearGradient>
  </defs>
</svg>
